name analog
datacolumns 19
datarows 36
range 0.4595 0.47700000000000004
endheader
time	ground_force_vx	ground_force_vy	ground_force_vz	ground_force_px	ground_force_py	ground_force_pz	l_ground_force_vx	l_ground_force_vy	l_ground_force_vz	l_ground_force_px	l_ground_force_py	l_ground_force_pz	ground_torque_x	ground_torque_y	ground_torque_z	l_ground_torque_x	l_ground_torque_y	l_ground_torque_z
0.4595	-0.0	-0.0	-0.0	2.7260255813598637	33.265377044677734	-358.8568725585937	-7.744622230529785	-52.12312698364258	-405.3914184570313	-0.0	-0.0	-0.0	-0.0	-0.0	-0.0	127333.8203125	-40634.23828125	1676.5811767578125
0.46	-0.0	-0.0	-0.0	2.669776678085327	33.760826110839844	-365.16217041015625	-8.42752456665039	-50.69002532958984	-402.9733276367188	-0.0	-0.0	-0.0	-0.0	-0.0	-0.0	126348.515625	-40149.09375	1466.5572509765625
0.4605	-0.0	-0.0	-0.0	2.536764144897461	33.90191650390625	-367.30712890625	-8.700248718261719	-49.473270416259766	-399.7786254882813	-0.0	-0.0	-0.0	-0.0	-0.0	-0.0	125339.96875	-40031.390625	1254.595703125
0.461	-0.0	-0.0	-0.0	2.2874457836151123	33.95228576660156	-368.7452087402344	-8.845002174377441	-48.10287094116211	-395.3165893554688	-0.0	-0.0	-0.0	-0.0	-0.0	-0.0	123935.921875	-39579.66796875	1231.7408447265625
0.4615	-0.0	-0.0	-0.0	2.0391175746917725	33.60216522216797	-369.5773315429688	-8.18082046508789	-45.81510925292969	-388.30755615234375	-0.0	-0.0	-0.0	-0.0	-0.0	-0.0	122031.703125	-38980.08984375	1156.766845703125
0.462	-0.0	-0.0	-0.0	1.7715753316879272	33.60847854614258	-366.4226989746094	-8.319518089294434	-44.37590789794922	-382.2957153320313	-0.0	-0.0	-0.0	-0.0	-0.0	-0.0	120146.28125	-38386.48046875	1175.8255615234375
0.4625	-0.0	-0.0	-0.0	1.2489471435546875	33.78666305541992	-365.4918212890625	-7.9016194343566895	-42.99367141723633	-373.0929260253906	-0.0	-0.0	-0.0	-0.0	-0.0	-0.0	117281.3828125	-37568.21484375	920.0574951171876
0.463	-0.0	-0.0	-0.0	0.572370707988739	33.863372802734375	-364.006103515625	-8.357712745666504	-41.57442855834961	-362.39459228515625	-0.0	-0.0	-0.0	-0.0	-0.0	-0.0	114238.890625	-36640.6484375	820.4089965820312
0.4635	-0.0	-0.0	-0.0	1.3320459127426147	33.97089767456055	-360.8772888183594	-8.776140213012695	-39.58671569824219	-351.320068359375	-0.0	-0.0	-0.0	-0.0	-0.0	-0.0	110679.1640625	-35436.1484375	782.5501098632812
0.464	-0.0	-0.0	-0.0	1.046257734298706	34.48740768432617	-353.74932861328125	-8.52860164642334	-37.95985794067383	-340.3741760253906	-0.0	-0.0	-0.0	-0.0	-0.0	-0.0	107276.15625	-34424.00390625	516.1778564453125
0.4645	-0.0	-0.0	-0.0	1.5817641019821167	34.671730041503906	-354.4975280761719	-8.48562240600586	-36.97021484375	-328.7321472167969	-0.0	-0.0	-0.0	-0.0	-0.0	-0.0	103648.546875	-33439.58984375	414.2023010253906
0.465	-0.0	-0.0	-0.0	2.164785861968994	34.75492858886719	-349.13055419921875	-7.883159637451172	-35.109867095947266	-318.0295104980469	-0.0	-0.0	-0.0	-0.0	-0.0	-0.0	100581.1796875	-32508.5	347.5133361816406
0.4655	-0.0	-0.0	-0.0	2.5929946899414062	34.92734909057617	-345.40997314453125	-7.250256538391113	-33.52037811279297	-309.0937805175781	-0.0	-0.0	-0.0	-0.0	-0.0	-0.0	97454.7421875	-31510.58984375	668.6023559570312
0.466	-0.0	-0.0	-0.0	2.753835201263428	34.92159652709961	-341.148681640625	-6.457999706268311	-32.53727722167969	-300.2703857421875	-0.0	-0.0	-0.0	-0.0	-0.0	-0.0	94621.484375	-30789.97265625	847.3997802734375
0.4665	-0.0	-0.0	-0.0	3.551102876663208	34.7839241027832	-338.34637451171875	-5.151115417480469	-31.436655044555664	-291.8443908691406	-0.0	-0.0	-0.0	-0.0	-0.0	-0.0	92173.796875	-29983.298828125	1141.3099365234375
0.467	-0.0	-0.0	-0.0	4.037323474884033	34.77798080444336	-335.5435485839844	-3.388501644134521	-30.712726593017575	-282.78985595703125	-0.0	-0.0	-0.0	-0.0	-0.0	-0.0	89539.8125	-29194.0078125	1528.419677734375
0.4675	-0.0	-0.0	-0.0	5.073719501495361	34.78339385986328	-334.0635681152344	-2.8214704990386963	-30.02363967895508	-275.7391052246094	-0.0	-0.0	-0.0	-0.0	-0.0	-0.0	86864.953125	-28691.609375	1621.8895263671875
0.468	-0.0	-0.0	-0.0	5.625856876373291	34.571414947509766	-332.67333984375	-2.2177696228027344	-29.05783462524414	-268.2159118652344	-0.0	-0.0	-0.0	-0.0	-0.0	-0.0	84451.0078125	-27868.32421875	1624.474609375
0.4685	-0.0	-0.0	-0.0	5.408134937286377	33.93650436401367	-334.97003173828125	-1.9459679126739504	-28.68761444091797	-260.4224853515625	-0.0	-0.0	-0.0	-0.0	-0.0	-0.0	81726.7265625	-27160.8671875	1622.8515625
0.46900000000000003	-0.0	-0.0	-0.0	6.668878078460693	33.529449462890625	-332.6737976074219	-2.2728989124298096	-27.909652709960938	-253.7671356201172	-0.0	-0.0	-0.0	-0.0	-0.0	-0.0	79487.8046875	-26511.23828125	1457.9332275390625
0.46950000000000003	-0.0	-0.0	-0.0	7.047630310058594	33.56969451904297	-333.3804016113281	-2.323090076446533	-27.53431701660156	-246.50103759765625	-0.0	-0.0	-0.0	-0.0	-0.0	-0.0	77658.875	-25894.31640625	1441.1893310546875
0.47000000000000003	-0.0	-0.0	-0.0	7.934362888336182	32.89985656738281	-333.5507507324219	-1.8958818912506104	-27.21401596069336	-239.99685668945312	-0.0	-0.0	-0.0	-0.0	-0.0	-0.0	76184.359375	-25269.009765625	1352.61181640625
0.47050000000000003	-0.0	-0.0	-0.0	8.56950855255127	32.55907440185547	-335.16778564453125	-2.0024070739746094	-26.56863784790039	-236.66079711914065	-0.0	-0.0	-0.0	-0.0	-0.0	-0.0	74272.4453125	-24992.283203125	1545.8970947265625
0.47100000000000003	-0.0	-0.0	-0.0	9.005022048950195	33.0673828125	-336.268798828125	-1.1425189971923828	-25.95590209960937	-232.080322265625	-0.0	-0.0	-0.0	-0.0	-0.0	-0.0	73399.046875	-24484.19140625	1449.7177734375
0.47150000000000003	-0.0	-0.0	-0.0	9.099472045898438	32.621726989746094	-339.4673156738281	-0.6262636780738831	-24.47037124633789	-226.31268310546875	-0.0	-0.0	-0.0	-0.0	-0.0	-0.0	71294.1953125	-23981.470703125	1506.205078125
0.47200000000000003	-0.0	-0.0	-0.0	9.614240646362305	33.75994873046875	-345.0973815917969	-0.1721766591072082	-23.2442684173584	-219.2878570556641	-0.0	-0.0	-0.0	-0.0	-0.0	-0.0	69035.015625	-22938.732421875	1475.421630859375
0.47250000000000003	-0.0	-0.0	-0.0	9.698631286621094	34.00421142578125	-355.6923217773437	0.3548431396484375	-21.19720458984375	-210.8059539794922	-0.0	-0.0	-0.0	-0.0	-0.0	-0.0	66601.4296875	-22477.2578125	1389.078125
0.47300000000000003	-0.0	-0.0	-0.0	9.887396812438965	35.89961242675781	-362.6565551757813	0.7147985100746155	-19.05712509155273	-202.0782928466797	-0.0	-0.0	-0.0	-0.0	-0.0	-0.0	63611.6796875	-21429.517578125	1096.65625
0.47350000000000003	-0.0	-0.0	-0.0	9.95200252532959	37.59326171875	-373.99798583984375	0.4739693701267242	-16.369794845581055	-190.6168212890625	-0.0	-0.0	-0.0	-0.0	-0.0	-0.0	60033.671875	-20285.654296875	856.4363403320312
0.47400000000000003	-0.0	-0.0	-0.0	9.981769561767578	39.21247863769531	-384.0231018066406	1.2117928266525269	-14.538047790527344	-179.11477661132812	-0.0	-0.0	-0.0	-0.0	-0.0	-0.0	56872.67578125	-19475.05859375	740.450927734375
0.47450000000000003	-0.0	-0.0	-0.0	10.531671524047852	40.6869010925293	-398.2250671386719	1.429280400276184	-11.888901710510254	-168.2520751953125	-0.0	-0.0	-0.0	-0.0	-0.0	-0.0	53304.6015625	-18073.14453125	698.3377685546875
0.47500000000000003	-0.0	-0.0	-0.0	10.372356414794922	43.26651382446289	-412.1989135742188	2.306480407714844	-9.077576637268066	-155.95480346679688	-0.0	-0.0	-0.0	-0.0	-0.0	-0.0	49436.3203125	-16751.306640625	671.7550048828125
0.47550000000000003	-0.0	-0.0	-0.0	10.428200721740724	46.35251998901367	-428.4632873535156	3.306490421295166	-6.442666053771973	-142.74588012695312	-0.0	-0.0	-0.0	-0.0	-0.0	-0.0	45522.28125	-15477.8896484375	679.7523193359375
0.47600000000000003	-0.0	-0.0	-0.0	9.70998477935791	48.78223037719727	-442.9613342285156	3.991985321044922	-4.058041095733643	-131.26220703125	-0.0	-0.0	-0.0	-0.0	-0.0	-0.0	41487.55859375	-14108.193359375	652.8196411132812
0.47650000000000003	-0.0	-0.0	-0.0	9.184088706970217	52.25336456298828	-458.6094055175781	5.061232566833496	-1.66402006149292	-118.26954650878906	-0.0	-0.0	-0.0	-0.0	-0.0	-0.0	37322.71484375	-12996.06640625	838.5029296875
0.47700000000000004	-0.0	-0.0	-0.0	8.996699333190918	55.08258819580078	-475.541259765625	6.298465728759766	0.381037950515747	-104.28662872314452	-0.0	-0.0	-0.0	-0.0	-0.0	-0.0	32898.5234375	-11492.3671875	1016.2603759765624
